<svg xmlns="http://www.w3.org/2000/svg" width="24" height="24" viewBox="0 0 24 24">
    <path fill="#fff" d="M0 0H24V24H0z" opacity="0.01"/>
    <g>
        <path fill="#444" d="M9.741 19.282H1.954a.565.565 0 0 1 0-1.13h3.328V10.7h-.563A4.718 4.718 0 0 1 .073 5.158L.907.466A.564.564 0 0 1 1.463 0h8.768a.564.564 0 0 1 .556.466l.626 3.522a.011.011 0 0 0 0 .005l.207 1.165A4.718 4.718 0 0 1 6.977 10.7h-.565v7.451h3.329a.565.565 0 0 1 0 1.13zM1.164 5.5a3.587 3.587 0 0 0 3.555 4.072h2.258a3.588 3.588 0 0 0 3.533-4.216l-.128-.72a10.6 10.6 0 0 0-2.909.664H7.46a12.612 12.612 0 0 1-3.805.8 5.217 5.217 0 0 1-2.491-.6zm.773-4.37l-.566 3.184a4.134 4.134 0 0 0 2.291.653c.111 0 .226 0 .341-.011a13.266 13.266 0 0 0 3.126-.735 12.232 12.232 0 0 1 3.054-.71l-.425-2.382H1.937z" transform="translate(6 2) translate(0)"/>
    </g>
</svg>