<svg version="1.2" xmlns="http://www.w3.org/2000/svg" viewBox="0 0 24 24" width="24" height="24">
	<title>appointment-icon-svg</title>
	<style>
		.s0 { fill: #012bb4 } 
		.s1 { fill: #02ae96 } 
	</style>
	<path id="Layer" fill-rule="evenodd" class="s0" d="m3.5 22.5q-0.3 0-0.6-0.2-0.3-0.1-0.5-0.3-0.2-0.2-0.3-0.5-0.2-0.3-0.2-0.6v-16.1q0-0.4 0.2-0.7 0.1-0.3 0.3-0.5 0.2-0.2 0.5-0.3 0.3-0.2 0.6-0.2h3.3v-0.8q0-0.3 0.2-0.5 0.2-0.3 0.6-0.3 0.3 0 0.5 0.3 0.3 0.2 0.3 0.5v0.8h7.2v-0.8q0-0.3 0.3-0.5 0.2-0.3 0.5-0.3 0.4 0 0.6 0.3 0.2 0.2 0.2 0.5v0.8h3.3q0.3 0 0.6 0.2 0.3 0.1 0.5 0.3 0.2 0.2 0.3 0.5 0.2 0.3 0.2 0.7v16.1q0 0.3-0.2 0.6-0.1 0.3-0.3 0.5-0.2 0.2-0.5 0.3-0.3 0.2-0.6 0.2zm0-1.6h16.9v-10.8h-16.9zm16.9-12.4v-3.7h-3.3v0.8q0 0.3-0.2 0.6-0.2 0.2-0.6 0.2-0.3 0-0.5-0.2-0.3-0.3-0.3-0.6v-0.8h-7.2v0.8q0 0.3-0.2 0.6-0.3 0.2-0.6 0.2-0.3 0-0.6-0.2-0.2-0.3-0.2-0.6v-0.8h-3.2v3.7z"/>
	<path id="Layer" class="s1" d="m13 18.8h-2v-6.8h1.2q0.2 0 0.3 0.1 0.2 0 0.3 0.1 0.1 0.1 0.1 0.3 0.1 0.1 0.1 0.3c0 0 0 6 0 6z"/>
</svg>