<svg xmlns="http://www.w3.org/2000/svg" width="24" height="24" viewBox="0 0 24 24">
    <path fill="#fff" d="M0 0H24V24H0z" opacity="0.01"/>
    <g fill="#444">
        <path d="M1.686 0a.528.528 0 0 0-.528.527 2.906 2.906 0 0 1-.975 2.316.527.527 0 0 0 .689.8A3.916 3.916 0 0 0 2.213.527.527.527 0 0 0 1.686 0z" transform="translate(5 3) translate(9.645 11.08)"/>
        <path stroke="#444" stroke-miterlimit="10" stroke-width="0.1px" d="M6.985 18a7.492 7.492 0 0 1-4.91-1.679A6.016 6.016 0 0 1 0 11.607C0 9.97 1.118 7.54 3.324 4.385c1.534-2.2 3.088-4 3.26-4.2a.528.528 0 0 1 .8 0c.172.2 1.728 2.008 3.263 4.2 2.205 3.155 3.324 5.585 3.324 7.222a6.016 6.016 0 0 1-2.075 4.713A7.487 7.487 0 0 1 6.985 18zm0-16.657C6.417 2.023 5.3 3.4 4.183 5c-2.046 2.929-3.128 5.215-3.128 6.611a4.993 4.993 0 0 0 1.707 3.914 6.439 6.439 0 0 0 4.222 1.424 6.438 6.438 0 0 0 4.221-1.424 4.991 4.991 0 0 0 1.708-3.914c0-1.4-1.084-3.686-3.134-6.619-1.101-1.58-2.223-2.965-2.794-3.649z" transform="translate(5 3)"/>
    </g>
</svg>