<svg version="1.2" xmlns="http://www.w3.org/2000/svg" viewBox="0 0 24 24" width="24" height="24">
	<title>contact-svg</title>
	<style>
		.s0 { fill: #012bb4 } 
		.s1 { fill: #029480 } 
	</style>
	<path id="Layer" fill-rule="evenodd" class="s0" d="m8.1 22.5q0 0 0 0-0.1 0-0.1-0.1-0.1 0-0.1 0-0.1 0-0.1 0-0.1-0.1-0.2-0.1-0.1-0.1-0.1-0.2-0.1-0.1-0.1-0.2-0.1-0.1-0.1-0.2v-3.1q-0.6-0.2-1.2-0.6-0.6-0.3-1.1-0.7-0.5-0.5-1-0.9-0.5-0.5-0.9-1.1-0.4-0.5-0.7-1.1-0.3-0.5-0.5-1.1-0.2-0.7-0.3-1.3-0.1-0.6-0.1-1.2c0-5 4.7-9.1 10.5-9.1 5.8 0 10.5 4.1 10.5 9.1q0 0.9-0.2 1.7-0.2 0.9-0.6 1.7-0.4 0.8-1 1.6-0.5 0.7-1.2 1.3-0.8 0.6-1.6 1.1-0.9 0.5-1.8 0.8-0.9 0.4-1.9 0.6-0.9 0.2-1.9 0.2l-3.7 2.7q0 0-0.1 0.1 0 0-0.1 0-0.1 0.1-0.1 0.1-0.1 0-0.2 0zm3.9-19.4c-4.9 0-8.9 3.4-8.9 7.5 0 2.9 2.1 5.5 5.3 6.7q0.1 0.1 0.2 0.2 0.1 0 0.2 0.1 0.1 0.1 0.1 0.2 0.1 0.2 0.1 0.3v2l2.5-2q0.1 0 0.1 0 0.1-0.1 0.1-0.1 0.1 0 0.2 0 0 0 0.1 0c4.9 0 8.9-3.4 8.9-7.4 0-4.1-4-7.5-8.9-7.5z"/>
	<path id="Layer" class="s1" d="m11.5 15.8q-1.1 0-2.1-0.3-1-0.3-1.9-1-0.8-0.6-1.4-1.5-0.7-0.8-1-1.9l1.9-0.7q0.2 0.8 0.7 1.4 0.4 0.6 1 1.1 0.6 0.4 1.3 0.7 0.7 0.2 1.5 0.2z"/>
</svg>