<svg version="1.2" xmlns="http://www.w3.org/2000/svg" viewBox="0 0 24 24" width="24" height="24">
	<title>edit-profile-svg</title>
	<style>
		.s0 { fill: #029480 } 
		.s1 { fill: #012bb4 } 
	</style>
	<path id="Path" class="s0" d="m15.9 15.5h-7.8q-0.2 0-0.3 0-0.2-0.1-0.3-0.2-0.1-0.1-0.2-0.3 0-0.1 0-0.3v-1.1h9.4v1.1q0 0.2 0 0.3-0.1 0.2-0.2 0.3-0.1 0.1-0.3 0.2-0.1 0-0.3 0z"/>
	<path id="Path-2" class="s1" d="m19.1 21.8h-14.2q-0.3 0-0.6-0.1-0.3-0.1-0.5-0.4-0.2-0.2-0.3-0.5-0.1-0.3-0.1-0.6v-16.4q0-0.3 0.1-0.6 0.1-0.3 0.3-0.5 0.2-0.3 0.5-0.4 0.3-0.1 0.6-0.1h9.5q0.3 0 0.5 0.2 0.2 0.2 0.2 0.6 0 0.3-0.2 0.5-0.2 0.3-0.5 0.3h-9.5v16.4h14.2v-11.6q0-0.3 0.2-0.6 0.2-0.2 0.5-0.2 0.4 0 0.6 0.2 0.2 0.3 0.2 0.6v11.6q0 0.3-0.1 0.6-0.1 0.3-0.3 0.5-0.2 0.3-0.5 0.4-0.3 0.1-0.6 0.1z"/>
	<path id="Path-3" class="s1" d="m11.6 11.8q-0.2 0-0.4-0.1-0.2-0.2-0.3-0.4-0.1-0.2-0.1-0.5 0.1-0.2 0.3-0.4l8-7.6q0.2-0.2 0.6-0.2 0.3 0 0.5 0.2 0.2 0.3 0.2 0.6 0 0.3-0.2 0.5l-8.1 7.7q0 0-0.1 0.1 0 0-0.1 0-0.1 0.1-0.1 0.1-0.1 0-0.2 0z"/>
</svg>