<svg version="1.2" xmlns="http://www.w3.org/2000/svg" viewBox="0 0 24 24" width="24" height="24">
	<title>family-member-svg</title>
	<style>
		.s0 { fill: #012bb4 } 
		.s1 { fill: #029480 } 
	</style>
	<path id="Layer" fill-rule="evenodd" class="s0" d="m21.2 21.4h-1.3q-0.1 0-0.1 0 0-0.1-0.1-0.1 0 0 0 0 0-0.1 0-0.1c-0.1-1.4-0.6-2.7-1.6-3.7-1-0.9-2.4-1.5-3.8-1.5-1.3 0-2.7 0.6-3.7 1.5-1 1-1.5 2.3-1.6 3.7q0 0 0 0.1 0 0-0.1 0 0 0 0 0.1-0.1 0-0.1 0h-1.3q0 0-0.1 0 0-0.1 0-0.1-0.1 0-0.1 0 0-0.1 0-0.1 0-1 0.3-1.9 0.3-1 0.9-1.8 0.5-0.8 1.3-1.5 0.7-0.6 1.6-1c-0.8-0.6-1.3-1.4-1.6-2.4-0.2-0.9-0.2-1.9 0.1-2.8 0.3-0.9 0.9-1.7 1.7-2.3 0.8-0.5 1.7-0.8 2.7-0.8 1 0 2 0.3 2.7 0.8 0.8 0.6 1.4 1.4 1.8 2.3 0.3 0.9 0.3 1.9 0.1 2.8-0.3 0.9-0.9 1.8-1.6 2.4q0.3 0.1 0.5 0.3 0.3 0.1 0.6 0.3 0.2 0.2 0.5 0.4 0.2 0.2 0.4 0.4 0.5 0.5 0.9 1 0.3 0.6 0.6 1.2 0.3 0.6 0.4 1.3 0.2 0.6 0.2 1.3 0 0 0 0.1-0.1 0-0.1 0 0 0 0 0.1-0.1 0-0.1 0zm-6.9-13.1q-0.3 0-0.6 0.1-0.3 0.1-0.5 0.2-0.3 0.1-0.6 0.3-0.2 0.1-0.4 0.4-0.2 0.2-0.4 0.4-0.1 0.2-0.2 0.5-0.1 0.3-0.2 0.5-0.1 0.3-0.1 0.6c0 1 0.5 2 1.4 2.5 0.8 0.6 1.9 0.7 2.8 0.3 0.9-0.4 1.6-1.2 1.8-2.2 0.2-1-0.1-2-0.9-2.7q-0.2-0.2-0.4-0.4-0.3-0.1-0.5-0.2-0.3-0.1-0.6-0.2-0.3-0.1-0.6-0.1z"/>
	<path id="Layer" class="s1" d="m8.5 12q0-0.3-0.1-0.5 0-0.2 0-0.4 0.1-0.2 0.1-0.4 0-0.2 0-0.4 0-0.1 0-0.1 0 0 0-0.1 0 0 0 0 0 0-0.1-0.1-0.6-0.3-1.1-0.8-0.4-0.6-0.6-1.3-0.1-0.7 0.1-1.5 0.2-0.7 0.7-1.2 0.4-0.4 1-0.6 0.5-0.3 1.1-0.3 0.6 0 1.1 0.2 0.6 0.2 1 0.6 0.1 0.1 0.1 0.1 0.1 0.1 0.2 0.2 0 0.1 0.1 0.1 0 0.1 0.1 0.2 0 0 0 0 0.1 0.1 0.1 0.1 0 0 0.1 0 0 0 0 0 0.2-0.1 0.3-0.1 0.2-0.1 0.4-0.1 0.1-0.1 0.3-0.1 0.1 0 0.3 0 0.1 0 0.1-0.1 0 0 0.1 0 0-0.1 0-0.1 0-0.1 0-0.1c-0.7-1.3-1.9-2.2-3.2-2.5-1.4-0.3-2.9 0.1-4 1-1.1 0.8-1.7 2.2-1.7 3.6 0 1.4 0.6 2.8 1.7 3.7q-0.3 0.1-0.5 0.2-0.3 0.2-0.6 0.4-0.2 0.2-0.5 0.4-0.2 0.2-0.4 0.4-0.5 0.4-0.9 1-0.3 0.5-0.6 1.2-0.3 0.6-0.4 1.2-0.2 0.7-0.2 1.4 0 0 0 0 0.1 0.1 0.1 0.1 0 0 0 0 0.1 0 0.1 0h1.3q0.1 0 0.1 0 0 0 0.1 0 0 0 0-0.1 0 0 0 0 0-0.9 0.3-1.7 0.3-0.8 0.9-1.5 0.5-0.7 1.3-1.2 0.7-0.4 1.5-0.6 0.1 0 0.1-0.1 0 0 0 0 0.1 0 0.1-0.1 0 0 0 0z"/>
</svg>