<svg xmlns="http://www.w3.org/2000/svg" id="married" width="24" height="24" viewBox="0 0 24 24">
    <defs>
        <style>
            .cls-2{fill:#444}
        </style>
    </defs>
    <path id="Rectangle" fill="#fff" d="M0 0H24V24H0z" opacity="0.01"/>
    <g id="wedding-rings" transform="translate(3 3)">
        <path id="Shape" d="M12.488 11.022A5.519 5.519 0 0 1 9 9.775a5.512 5.512 0 1 1 0-8.527 5.51 5.51 0 1 1 3.488 9.774zm0-9.968A4.41 4.41 0 0 0 9.752 2a5.5 5.5 0 0 1 0 7.03 4.406 4.406 0 0 0 2.736.941 4.456 4.456 0 1 0 0-8.913zm-6.977 0a4.456 4.456 0 1 0 0 8.913 4.405 4.405 0 0 0 2.736-.941 5.5 5.5 0 0 1 0-7.03 4.411 4.411 0 0 0-2.735-.941zM9 2.741a4.448 4.448 0 0 0 0 5.54 4.448 4.448 0 0 0 0-5.54z" class="cls-2" transform="translate(0 6.977)"/>
        <path id="Shape-2" d="M3.344 6.35a.539.539 0 0 1-.217-.05C3 6.247 0 4.863 0 2.039A2.036 2.036 0 0 1 3.343.474a2.036 2.036 0 0 1 3.342 1.565c0 2.824-3 4.208-3.127 4.266a.538.538 0 0 1-.214.045zm-1.306-5.3a.984.984 0 0 0-.983.984c0 1.789 1.751 2.9 2.288 3.192.536-.3 2.288-1.4 2.288-3.192a.983.983 0 0 0-1.832-.5.528.528 0 0 1-.911 0 .989.989 0 0 0-.85-.479z" class="cls-2" transform="translate(5.658 0)"/>
    </g>
</svg>