<svg version="1.2" xmlns="http://www.w3.org/2000/svg" viewBox="0 0 24 24" width="24" height="24">
	<title>medical-profile-icon-svg</title>
	<style>
		.s0 { fill: #012bb4 } 
		.s1 { fill: #02ae96 } 
	</style>
	<path id="Path" class="s0" d="m19.2 22.5h-14.4q-0.4 0-0.7-0.2-0.3-0.1-0.5-0.3-0.2-0.2-0.3-0.5-0.2-0.3-0.2-0.6v-16.1q0-0.4 0.2-0.7 0.1-0.3 0.3-0.5 0.2-0.2 0.5-0.3 0.3-0.2 0.7-0.2h2.8q0.3 0 0.5 0.3 0.3 0.2 0.3 0.5 0 0.4-0.3 0.6-0.2 0.2-0.5 0.3h-2.8v16.1h14.5v-16.1h-2.7q-0.3-0.1-0.5-0.3-0.3-0.2-0.3-0.6 0-0.3 0.3-0.5 0.2-0.3 0.5-0.3h2.6q0.4 0 0.7 0.2 0.3 0.1 0.5 0.3 0.2 0.2 0.3 0.5 0.2 0.3 0.2 0.7v16.1q0 0.3-0.2 0.6-0.1 0.3-0.3 0.5-0.2 0.2-0.5 0.3-0.3 0.2-0.7 0.2z"/>
	<path id="Shape" fill-rule="evenodd" class="s0" d="m14.8 6.4h-5.6c-0.7 0-1.3-0.3-1.7-0.7-0.5-0.5-0.7-1.1-0.7-1.8 0-0.6 0.2-1.2 0.7-1.7 0.4-0.4 1-0.7 1.7-0.7h5.6c0.7 0 1.3 0.3 1.7 0.7 0.5 0.5 0.7 1.1 0.7 1.7 0 0.7-0.2 1.3-0.7 1.8-0.4 0.4-1 0.7-1.7 0.7zm-5.6-3.3q-0.3 0-0.6 0.3-0.2 0.2-0.2 0.5 0 0.4 0.2 0.6 0.3 0.2 0.6 0.3h5.6q0.4-0.1 0.6-0.3 0.2-0.2 0.2-0.6 0-0.3-0.2-0.5-0.2-0.3-0.6-0.3z"/>
	<path id="Path-2" class="s1" d="m10.5 16.5l-3.3-3.7 1.5-1.3 2.5 2.7 4.6-4.8 1.5 1.5-5.6 5.7q-0.1 0.1-0.3 0.1-0.1 0.1-0.3 0.1-0.2 0-0.3-0.1-0.2 0-0.3-0.2z"/>
</svg>