<svg version="1.2" xmlns="http://www.w3.org/2000/svg" viewBox="0 0 24 24" width="24" height="24">
	<title>notifications-svg</title>
	<style>
		.s0 { fill: #012bb4 } 
		.s1 { fill: #029480 } 
	</style>
	<path id="Path" class="s0" d="m4.3 18.7q-0.2 0-0.3-0.1-0.2-0.1-0.3-0.2-0.1-0.1-0.1-0.3-0.1-0.2-0.1-0.3c0-0.1 0.5-4.7 0.8-8.6 0.5-4.6 3.6-7.7 7.7-7.7 4 0 7.2 3.2 7.6 7.6 0.4 3.7 0.8 8.6 0.9 8.7q0 0.3-0.2 0.6-0.3 0.2-0.6 0.3-0.3 0-0.6-0.2-0.2-0.2-0.3-0.6c0 0-0.4-4.9-0.8-8.6-0.3-3-2.5-6.2-6-6.2-3.2 0-5.7 2.5-6 6.2-0.4 4-0.8 8.6-0.8 8.6q-0.1 0.2-0.1 0.3-0.1 0.2-0.2 0.3-0.1 0.1-0.3 0.1-0.1 0.1-0.3 0.1z"/>
	<path id="Path-2" class="s0" d="m21.7 19.3h-19.4q-0.3 0-0.5-0.2-0.3-0.3-0.3-0.6 0-0.3 0.3-0.6 0.2-0.2 0.5-0.2h19.4q0.3 0 0.5 0.2 0.3 0.3 0.3 0.6 0 0.3-0.3 0.6-0.2 0.2-0.5 0.2z"/>
	<path id="Path-3" class="s0" d="m12.2 22.5q-0.7 0-1.4-0.3-0.7-0.3-1.2-0.8-0.5-0.5-0.7-1.2-0.3-0.7-0.3-1.4 0-0.3 0.2-0.5 0.3-0.3 0.6-0.3 0.3 0 0.6 0.3 0.2 0.2 0.2 0.5c0 0.6 0.2 1.1 0.6 1.5 0.3 0.4 0.9 0.6 1.4 0.6 0.5 0 1.1-0.2 1.4-0.6 0.4-0.4 0.6-0.9 0.6-1.5q0-0.3 0.3-0.5 0.2-0.3 0.5-0.3 0.4 0 0.6 0.3 0.2 0.2 0.2 0.5 0 0.7-0.2 1.4-0.3 0.7-0.8 1.2-0.5 0.5-1.2 0.8-0.7 0.3-1.4 0.3z"/>
	<path id="Path-4" class="s1" d="m8.4 16.2h-1.3l0.5-6.5h1.4c0.4 0 0.6 0.4 0.6 0.8l-0.4 4.9q0 0.1-0.1 0.3 0 0.1-0.1 0.2-0.1 0.1-0.3 0.2-0.1 0.1-0.3 0.1z"/>
</svg>