<svg version="1.2" xmlns="http://www.w3.org/2000/svg" viewBox="0 0 24 24" width="24" height="24">
	<title>pin-svg</title>
	<style>
		.s0 { fill: #012bb4 } 
		.s1 { fill: #029480 } 
	</style>
	<path id="Layer" fill-rule="evenodd" class="s0" d="m12 22.5q-0.2 0-0.4-0.1-0.2 0-0.3-0.1-0.2-0.1-0.3-0.2-0.2-0.1-0.3-0.3l-5.5-7.1q0 0 0-0.1-0.1 0-0.1 0 0-0.1 0-0.1 0 0-0.1-0.1-0.3-0.5-0.6-1-0.3-0.6-0.5-1.2-0.2-0.6-0.3-1.2-0.1-0.6-0.1-1.2 0.1-1.7 0.7-3.2 0.7-1.5 1.9-2.7 1.2-1.2 2.7-1.8 1.6-0.6 3.2-0.6 1.7 0 3.2 0.6 1.5 0.6 2.7 1.8 1.2 1.2 1.9 2.7 0.6 1.5 0.7 3.2 0 0.6-0.2 1.2-0.1 0.6-0.2 1.2-0.2 0.6-0.5 1.2-0.3 0.5-0.7 1 0 0.1 0 0.1 0 0 0 0.1-0.1 0-0.1 0 0 0.1 0 0.1l-5.5 7.1q-0.1 0.2-0.3 0.3-0.1 0.1-0.3 0.2-0.2 0.1-0.3 0.1-0.2 0.1-0.4 0.1zm-5.6-8.9q0 0 0 0 0 0 0 0 0 0 0 0 0 0 0 0 0 0 0 0 0 0 0 0zm0 0q0.1 0 0.1 0.1 0 0 0 0l5.5 7.2 5.5-7.2v-0.1l0.1-0.1q0 0 0 0 0 0 0 0 0 0 0 0 0 0 0 0 0.3-0.4 0.5-0.9 0.3-0.4 0.4-0.9 0.2-0.5 0.3-1 0-0.4 0-1 0-1.3-0.5-2.5-0.5-1.2-1.5-2.2-1-0.9-2.2-1.4-1.3-0.5-2.6-0.5-1.3 0-2.6 0.5-1.2 0.5-2.2 1.4-0.9 1-1.5 2.2-0.5 1.2-0.5 2.6 0 0.5 0 1 0.1 0.5 0.3 0.9 0.1 0.5 0.3 1 0.3 0.4 0.6 0.8v0.1q0 0 0 0z"/>
	<path id="Layer" fill-rule="evenodd" class="s1" d="m11.9 13.4c-1.5 0-2.9-0.9-3.4-2.3-0.6-1.4-0.3-3.1 0.8-4.1 1-1.1 2.7-1.4 4.1-0.8 1.4 0.5 2.3 1.9 2.3 3.4q0 0.8-0.3 1.5-0.3 0.6-0.8 1.2-0.6 0.5-1.2 0.8-0.7 0.3-1.5 0.3zm0-5.8c-0.8 0-1.5 0.5-1.8 1.2-0.4 0.8-0.2 1.6 0.4 2.2 0.6 0.6 1.4 0.8 2.2 0.4 0.7-0.3 1.2-1 1.2-1.8q0-0.4-0.2-0.8-0.1-0.3-0.4-0.6-0.3-0.3-0.6-0.4-0.4-0.2-0.8-0.2z"/>
</svg>