<svg xmlns="http://www.w3.org/2000/svg" id="weight" width="24" height="24" viewBox="0 0 24 24">
    <defs>
        <style>
            .cls-2{fill:#444;stroke:#444;stroke-miterlimit:10;stroke-width:.1px}
        </style>
    </defs>
    <path id="Rectangle" fill="#fff" d="M0 0H24V24H0z" opacity="0.01"/>
    <g id="weight-scale" transform="translate(3 3)">
        <path id="Shape" d="M16.418 18H1.582A1.584 1.584 0 0 1 0 16.418V1.582A1.584 1.584 0 0 1 1.582 0h14.836A1.584 1.584 0 0 1 18 1.582v14.836A1.584 1.584 0 0 1 16.418 18zM1.582 1.055a.528.528 0 0 0-.527.527v14.836a.528.528 0 0 0 .527.527h14.836a.528.528 0 0 0 .527-.527V1.582a.528.528 0 0 0-.527-.527z" class="cls-2"/>
        <path id="Shape-2" d="M3.312 6.68a.531.531 0 0 1-.422-.211L.106 2.766a.528.528 0 0 1 .1-.739 10.139 10.139 0 0 1 12.164 0 .529.529 0 0 1 .105.739L9.7 6.469a.526.526 0 0 1-.423.211.52.52 0 0 1-.315-.105 4.443 4.443 0 0 0-5.331 0 .525.525 0 0 1-.319.105zm2.981-4.158a.528.528 0 0 1 .527.527v1.608a5.4 5.4 0 0 1 2.335.778l2.156-2.868a9.087 9.087 0 0 0-10.036 0l2.156 2.867a5.41 5.41 0 0 1 2.335-.778V3.049a.528.528 0 0 1 .527-.527z" class="cls-2" transform="translate(2.707 2.18)"/>
    </g>
</svg>