<svg version="1.2" xmlns="http://www.w3.org/2000/svg" viewBox="0 0 22 22" width="22" height="22">
	<title>bubble-heart-svg</title>
	<style>
		.s0 { fill: #02ae96 } 
	</style>
	<path id="Layer" fill-rule="evenodd" class="s0" d="m11.8 20.5q-1.8 0-3.4-0.6c-0.1-0.1-0.2-0.1-0.2-0.1h-0.1l-5.2 0.5c-0.6 0.1-1.1 0.1-1.5-0.1-0.4-0.2-0.6-0.6-0.7-1.1-0.1-0.5 0.2-0.9 0.4-1.4l1.7-3q0.1-0.2 0.1-0.3 0-0.1-0.1-0.4c-1.7-4.9 1-10.3 6-12 2.4-0.8 5-0.6 7.2 0.5q0.9 0.4 1.6 1 0.8 0.6 1.4 1.3 0.6 0.7 1 1.5 0.5 0.8 0.8 1.7 0.5 1.4 0.5 3c0 2.5-1 4.9-2.8 6.7-1.8 1.8-4.1 2.8-6.7 2.8zm-3.6-2.7q0.3 0 0.5 0c0 0.1 0.1 0.1 0.4 0.2 2.9 1.1 6 0.4 8-1.7 1.4-1.4 2.2-3.3 2.2-5.3q0-1.2-0.4-2.4-0.2-0.7-0.6-1.3-0.3-0.7-0.8-1.2-0.5-0.6-1.1-1-0.6-0.5-1.2-0.8-0.7-0.3-1.4-0.5-0.7-0.2-1.5-0.3-0.7 0-1.4 0.1-0.8 0.1-1.5 0.3c-3.9 1.3-6 5.6-4.7 9.5 0.1 0.4 0.2 0.6 0.2 0.8q0.1 0.4 0 0.7c-0.1 0.2-0.2 0.4-0.4 0.7l-1.4 2.7 4.7-0.5q0.2 0 0.4 0z"/>
	<path id="Layer" fill-rule="evenodd" class="s0" d="m11.8 16.2q-0.3 0-0.6-0.1c-0.4-0.1-0.7-0.4-1.1-0.8q-2.3-2-3-2.9c-1.2-1.6-1-3.8 0.5-5.1 1.3-1 2.9-1 4.2-0.2 1.3-0.8 2.9-0.8 4.2 0.2q0 0 0 0c0.7 0.6 1.2 1.5 1.3 2.4 0.1 1-0.2 1.9-0.8 2.7q-0.7 0.9-3 2.9c-0.4 0.4-0.7 0.7-1.1 0.8q-0.3 0.1-0.6 0.1zm-2-7.7q-0.4 0-0.9 0.4c-0.7 0.5-0.8 1.5-0.2 2.2 0.3 0.5 1.3 1.5 2.7 2.7 0.2 0.2 0.4 0.4 0.4 0.4 0-0.1 0.2-0.2 0.4-0.4 1.9-1.7 2.5-2.4 2.7-2.7 0.3-0.3 0.4-0.7 0.4-1.2q-0.1-0.6-0.6-1 0-0.1-0.1-0.1c-0.7-0.6-1.6-0.3-2.1 0.3-0.1 0.2-0.4 0.3-0.7 0.3-0.3 0-0.6-0.1-0.8-0.3-0.3-0.3-0.7-0.6-1.2-0.6z"/>
</svg>