<svg version="1.2" xmlns="http://www.w3.org/2000/svg" viewBox="0 0 22 22" width="22" height="22">
	<title>chart-svg</title>
	<style>
		.s0 { fill: #02ae96 } 
	</style>
	<path id="Layer" class="s0" d="m21 17h-7c-0.6 0-1-0.4-1-1 0-0.6 0.4-1 1-1h4.6l-6.2-6.2c-0.2-0.2-0.4-0.4-0.4-0.4 0 0-0.2 0.2-0.4 0.4l-2.8 2.8c-0.4 0.4-0.7 0.8-1.2 0.9q-0.6 0.2-1.2 0c-0.5-0.2-0.8-0.5-1.2-0.9l-4.9-4.9q-0.3-0.3-0.3-0.7 0-0.4 0.3-0.7 0.3-0.3 0.7-0.3 0.4 0 0.7 0.3l4.9 4.9c0.2 0.2 0.4 0.4 0.4 0.4 0 0 0.2-0.2 0.4-0.4l2.8-2.8c0.4-0.4 0.7-0.7 1.2-0.9q0.6-0.2 1.2 0c0.5 0.2 0.8 0.5 1.2 0.9l6.2 6.2v-4.6c0-0.6 0.5-1 1-1 0.6 0 1 0.4 1 1v7q0 0.2-0.1 0.4-0.1 0.2-0.2 0.3-0.1 0.1-0.3 0.2-0.2 0.1-0.4 0.1z"/>
</svg>