<svg version="1.2" xmlns="http://www.w3.org/2000/svg" viewBox="0 0 22 22" width="22" height="22">
	<title>clock-plus-svg</title>
	<style>
		.s0 { fill: #02ae96 } 
	</style>
	<path id="Layer" fill-rule="evenodd" class="s0" d="m11 22c-6.1 0-11-4.9-11-11 0-6.1 4.9-11 11-11 6.1 0 11 4.9 11 11q0 0.7-0.1 1.4c-0.1 0.5-0.6 0.9-1.1 0.9-0.6-0.1-1-0.6-0.9-1.2q0.1-0.5 0.1-1.1c0-5-4.1-9-9-9-5 0-9 4-9 9 0 5 4 9 9 9q0.6 0 1.2-0.1c0.5 0 1 0.4 1.1 0.9 0.1 0.6-0.3 1.1-0.9 1.1q-0.7 0.1-1.4 0.1zm7 0c-0.5 0-1-0.4-1-1v-2h-2c-0.5 0-1-0.4-1-1 0-0.5 0.5-1 1-1h2v-2c0-0.5 0.5-1 1-1 0.6 0 1 0.5 1 1v2h2c0.6 0 1 0.5 1 1 0 0.6-0.4 1-1 1h-2v2c0 0.6-0.4 1-1 1zm-3.2-8.1q-0.3 0-0.5-0.1l-3.7-1.9q-0.2-0.1-0.3-0.2-0.1 0-0.1-0.2-0.1-0.1-0.2-0.2 0-0.2 0-0.3v-6c0-0.5 0.5-1 1-1 0.6 0 1 0.5 1 1v5.4l3.2 1.6c0.5 0.2 0.7 0.8 0.5 1.3-0.2 0.4-0.6 0.6-0.9 0.6z"/>
</svg>