<svg version="1.2" xmlns="http://www.w3.org/2000/svg" viewBox="0 0 22 22" width="22" height="22">
	<title>rocket-svg</title>
	<style>
		.s0 { fill: #02ae96 } 
	</style>
	<path id="Layer" fill-rule="evenodd" class="s0" d="m1.3 21.8c-0.3-0.1-0.6-0.2-0.8-0.3q0-0.1-0.1-0.2-0.1-0.1-0.1-0.2 0-0.1 0-0.3-0.1-0.1 0-0.2c0-0.4 0.6-4.1 2.3-5.6q0.5-0.4 1-0.6 0.6-0.2 1.2-0.2 0.5 0.1 1.1 0.3 0.5 0.2 1 0.6c1.1 1.2 1.2 3 0.1 4.3-1.4 1.7-5.2 2.3-5.6 2.4zm9.5-1.5q-0.2 0-0.4-0.1-0.2-0.1-0.3-0.2-0.2-0.2-0.2-0.4-0.1-0.2-0.1-0.3v-4.6l-2.4-2.4h-4.6c-0.3 0-0.6-0.2-0.8-0.4-0.2-0.2-0.3-0.5-0.2-0.8 0.1-0.4 0.7-3.5 2.4-4.7 1.5-1 4-0.6 5.2-0.3 2.6-3.7 6.8-5.8 11.3-5.8h0.1c0.5 0 1 0.4 1 1 0 2.7-0.8 7.6-5.9 11.4 0.3 1.2 0.7 3.6-0.3 5.1-1.2 1.8-4.3 2.4-4.6 2.4q-0.1 0-0.2 0.1zm-6.1-4.1q-0.4 0-0.8 0.3c-0.6 0.5-1.1 1.8-1.4 3 1.2-0.3 2.5-0.8 3-1.4 0.4-0.4 0.4-1.1 0-1.5-0.2-0.2-0.5-0.4-0.8-0.4zm7.1-1.3v3.1c0.9-0.3 1.8-0.8 2.1-1.3 0.5-0.6 0.4-1.9 0.2-2.9q-1.1 0.6-2.3 1.1zm-0.8-1.8q1.7-0.7 3.2-1.7c4.1-2.7 5.3-6.3 5.5-9.1-3.7 0.3-7 2.3-9.1 5.5q-0.9 1.6-1.6 3.2zm-7-2.8h3q0.6-1.2 1.2-2.3c-1.1-0.2-2.3-0.3-2.9 0.1-0.6 0.4-1 1.3-1.3 2.2z"/>
</svg>