<svg version="1.2" xmlns="http://www.w3.org/2000/svg" viewBox="0 0 300 300" width="300" height="300">
	<title>expertises-svg</title>
	<style>
		.s0 { fill: #012bb4 } 
		.s1 { fill: #00ad96 } 
	</style>
	<path id="Layer" class="s0" d="m251.5 104.8c-4.3-7.9-9.5-14.9-15.3-21.2-2.4 8.7-7.8 16.2-15.1 21.2 3.1 3.7 5.9 7.8 8.3 12.2 21.2 38.6 7.1 87.5-31.6 108.8-23 12.6-49.4 12.7-71.6 2.7-9.3-4.2-19.3-6.3-29.5-6.3h-18.9c21.2 26.1 53.3 40 85.9 38.6v25.8h-32.9c-3.4 0-6.4 2.5-6.6 5.9-0.3 3.7 2.7 6.9 6.4 6.9h114.5c3.4 0 6.4-2.5 6.6-5.9 0.3-3.7-2.7-6.9-6.4-6.9h-33.1v-40.2c49.3-28.5 67-91.4 39.3-141.6z"/>
	<path id="Layer" class="s1" d="m234.8 135.4c-25.7 0-46.4-20.7-46.4-46.4 0-25.7 20.7-46.4 46.4-46.4 25.7 0 46.4 20.7 46.4 46.4 0 25.7-20.7 46.4-46.4 46.4z"/>
	<path id="Layer" class="s1" d="m282.4 67.2l-127.9 71.1-34.7-62.4 127.9-71.1c16-8.9 36.5-3.1 45.4 12.9l2.3 4.1c8.9 16.1 3 36.5-13 45.4z"/>
	<path id="Layer" class="s1" d="m154.5 152.4c-3.7 2.1-8.5 0.7-10.6-3l-39.7-71c-2.1-3.7-0.7-8.5 3-10.6 3.7-2.1 8.5-0.7 10.6 3l39.7 71c2.1 3.8 0.7 8.5-3 10.6z"/>
	<path id="Layer" class="s0" d="m130.2 212.8h-122.4c-4 0-7.3-3.3-7.3-7.3v-17.7c0-4 3.3-7.3 7.3-7.3h122.4c4 0 7.3 3.3 7.3 7.3v17.7c0.1 4-3.2 7.3-7.3 7.3z"/>
</svg>