<svg version="1.2" xmlns="http://www.w3.org/2000/svg" viewBox="0 0 300 300" width="300" height="300">
	<title>faq-svg</title>
	<style>
		.s0 { fill: #00ae97 } 
		.s1 { fill: #ffffff } 
		.s2 { fill: #012bb4 } 
	</style>
	<path id="Layer" class="s0" d="m224.8 162.4c-6.8-62-62.4-106.7-124.2-100-61.9 6.7-106.7 62.3-100.1 124.1 6.8 61.9 62.3 106.7 124.2 100.1 1.3-0.1 2.5-0.3 3.7-0.5l37.1 12.2c6.8 2.2 14.1-1.5 16.5-8.3l12.6-38.1c21.9-23.1 33.9-55.4 30.2-89.5z"/>
	<path id="Layer" class="s1" d="m112.7 156.6c-9.9 0-18.1 8.2-18.1 18.1v45.2c0 9.9 8.2 18.1 18.1 18.1 9.9 0 18.1-8.2 18.1-18.1v-45.2c0-10-8.1-18.1-18.1-18.1z"/>
	<path id="Layer" class="s1" d="m112.6 143.5c-9.3 0-16.9-7.6-16.9-16.9 0-9.3 7.6-16.9 16.9-16.9 9.3 0 16.9 7.6 16.9 16.9 0 9.3-7.6 16.9-16.9 16.9z"/>
	<path id="Layer" class="s2" d="m282.3 135.3c28.4-36.4 22-89-14.4-117.4-36.4-28.4-89-22-117.4 14.3-28.4 36.3-22 89 14.4 117.4 0.7 0.6 1.5 1.1 2.2 1.7l13.5 25.7c2.5 4.7 8.3 6.5 13 4.1l26.4-13.8c23.6-1 46.6-11.9 62.3-32z"/>
	<path id="Layer" class="s1" d="m202.7 105.9c-2-1.9-2.9-4.3-2.9-7.3v-14c0-3 0.9-5.5 2.6-7.5 1.8-2 4.3-2.9 7.6-2.9 4.3 0 7.6-1 10-3 2.3-2 3.5-4.4 3.5-7.3 0-2.5-1.1-4.8-3.2-6.7-2.1-1.9-5-2.9-8.6-2.9-3.6 0-7.2 1-10.7 3.1-2.1 0.9-3.9 1.3-5.4 1.3-2.8 0-5.2-1-7-3.2-1.9-2.1-2.8-4.5-2.8-7.3 0-2.1 0.5-3.9 1.5-5.6q1.5-2.6 4.8-4.2c6.3-3.1 12.8-4.7 19.6-4.7 7.1 0 13.4 1.3 18.8 4 5.4 2.6 9.5 6.2 12.5 10.8 2.9 4.5 4.4 9.5 4.4 14.9 0 4.9-1.1 9.5-3.2 13.9-2.2 4.4-5.3 8.1-9.5 11.1-4.2 3-9 4.8-14.6 5.5v4.5c0 3-1 5.5-2.9 7.3-2 1.9-4.4 2.8-7.2 2.8-2.9 0.1-5.3-0.8-7.3-2.6zm16.2 10.9q3.6 3.2 3.6 9c0 3.8-1.2 6.8-3.6 8.9-2.4 2.2-5.3 3.2-8.7 3.2-3.2 0-6.1-1.1-8.6-3.2-2.5-2.1-3.7-5.1-3.7-8.9 0-3.8 1.2-6.8 3.7-8.9 2.4-2.1 5.3-3.2 8.6-3.2 3.4-0.1 6.3 1 8.7 3.1z"/>
</svg>