<svg version="1.2" xmlns="http://www.w3.org/2000/svg" viewBox="0 0 300 300" width="300" height="300">
	<title>map-svg</title>
	<style>
		.s0 { fill: #012bb4 } 
		.s1 { fill: #00ad96 } 
		.s2 { fill: #ffffff } 
	</style>
	<path id="Layer" class="s0" d="m150 298.9c-75 0-135.6-13.5-135.6-30.3 0-16.8 60.6-30.3 135.6-30.3 75 0 135.6 13.5 135.6 30.3 0 16.8-60.6 30.3-135.6 30.3z"/>
	<path id="Layer" class="s1" d="m256.6 93.3c-5.2-36.4-28.5-67.6-62-82.9-33.4-15.2-72.4-12.4-103.2 7.6-30.8 20-49.5 54.3-49.2 91.1 0 66.7 56.4 125.5 87.5 152.9 5.5 4.9 12.8 7.6 20.2 7.6 7.5 0 14.6-2.7 20.2-7.6 33.7-29.7 96.6-95.5 86.5-168.7z"/>
	<path id="Layer" class="s2" d="m190.4 104.1c-3.6 22.4-24.6 37.5-46.9 33.9-22.4-3.7-37.5-24.6-33.9-47 3.7-22.3 24.6-37.4 47-33.8 22.3 3.6 37.4 24.6 33.8 46.9z"/>
</svg>