<svg version="1.2" xmlns="http://www.w3.org/2000/svg" viewBox="0 0 300 300" width="300" height="300">
	<title>presentation-svg</title>
	<style>
		.s0 { fill: #012bb4 } 
		.s1 { fill: #00ad96 } 
		.s2 { fill: #ffffff } 
	</style>
	<path id="Layer" class="s0" d="m250.3 277.4h-121.9c-26.8 0-48.7-22-48.7-48.7v-178.8c0-26.8 22-48.7 48.7-48.7h122c26.8 0 48.7 22 48.7 48.7v179c-0.1 26.7-22.1 48.5-48.8 48.5z"/>
	<path id="Layer" class="s1" d="m171.7 298.8h-121.8c-26.8 0-48.7-22-48.7-48.7v-179c0-26.8 22-48.7 48.7-48.7h122c26.8 0 48.7 22 48.7 48.7v179c-0.2 26.7-22 48.7-48.9 48.7z"/>
	<path id="Layer" class="s2" d="m165.2 99.9h-117.9c-4.3 0-7.8-3.5-7.8-7.8 0-4.3 3.5-7.8 7.8-7.8h117.8c4.3 0 7.8 3.5 7.8 7.8 0 4.3-3.4 7.8-7.7 7.8zm0 42.3h-117.9c-4.3 0-7.8-3.5-7.8-7.8 0-4.3 3.5-7.8 7.8-7.8h117.8c4.3 0 7.8 3.5 7.8 7.8 0 4.3-3.4 7.8-7.7 7.8zm0 43.1h-117.9c-4.3 0-7.8-3.5-7.8-7.8 0-4.3 3.5-7.8 7.8-7.8h117.8c4.3 0 7.8 3.5 7.8 7.8 0 4.2-3.4 7.8-7.7 7.8zm-35.1 41.7h-82.7c-4.3 0-7.8-3.5-7.8-7.8 0-4.3 3.5-7.8 7.8-7.8h82.7c4.3 0 7.8 3.5 7.8 7.8 0 4.3-3.6 7.8-7.8 7.8z"/>
</svg>