<svg version="1.2" xmlns="http://www.w3.org/2000/svg" viewBox="0 0 300 300" width="300" height="300">
	<title>specialties-svg</title>
	<style>
		.s0 { fill: #ffffff } 
		.s1 { fill: #00ad96 } 
		.s2 { fill: #012bb4 } 
	</style>
	<path id="Layer" class="s0" d="m0.7 115.5h298v73.4h-298z"/>
	<path id="Layer" class="s0" d="m174.5 139.8h-49.5c-4.2 0-7.6 3.5-7.6 7.7v24.9c0 4.2 3.4 7.7 7.6 7.7h49.5c3 0 5.6-1.8 6.8-4.3h0.8v-28.3c0-4.3-3.4-7.7-7.6-7.7z"/>
	<path id="Layer" class="s1" d="m189.1 164.6c37.7-2.6 74.3-8.9 109.7-18.6v104.5c0 14.7-11.6 26.7-25.9 26.7h-246.2c-14.3 0-25.9-11.9-25.9-26.7v-104.5c35.3 9.7 72 16 109.7 18.6v7.8c0 8.3 6.5 15 14.5 15h49.5c8 0 14.5-6.7 14.5-15z"/>
	<path id="Layer" fill-rule="evenodd" class="s2" d="m298.7 90.7v43.1c-35.4 9.7-72 16-109.7 18.6v-5c0-8.3-6.5-15-14.5-15h-49.5c-8 0-14.5 6.7-14.5 15v5c-37.7-2.6-74.4-8.9-109.7-18.6v-43.1c0-14.7 11.6-26.7 26-26.7h61.3v-11.3c0-20.9 13.8-37.9 30.7-37.9h62c16.9 0 30.7 17 30.7 37.9v11.3h61.3c14.4 0 26 12 25.9 26.7zm-107.2-26.7v-13.7c0-9-4.8-16.2-10.8-16.2h-62c-5.9 0-10.8 7.3-10.8 16.2v13.7z"/>
	<path id="Layer" class="s0" d="m172.4 189.9h-49.2c-16 0-29.1-13.1-29.1-29.1 0-16 13.1-29.1 29.1-29.1h49.2c16 0 29.1 13.1 29.1 29.1 0 16-13.1 29.1-29.1 29.1z"/>
</svg>