<svg xmlns="http://www.w3.org/2000/svg" width="124.762" height="38.252" viewBox="0 0 124.762 38.252">
    <defs>
        <style>
            .cls-2{fill:#fff}
        </style>
    </defs>
    <g id="app_store_badge" transform="translate(-0.873 -0.875)">
        <g id="Groupe_40559">
            <g id="Groupe_40558">
                <g id="Groupe_40557">
                    <path id="Tracé_4446" d="M8.445 39.125c-.3 0-.6 0-.9-.011a12.619 12.619 0 0 1-1.87-.163 5.865 5.865 0 0 1-1.66-.551 5.374 5.374 0 0 1-1.4-1.016A5.329 5.329 0 0 1 1.6 35.99a5.752 5.752 0 0 1-.543-1.657 12.388 12.388 0 0 1-.166-1.875c-.007-.211-.015-.913-.015-.913V8.444s.009-.691.015-.894a12.35 12.35 0 0 1 .165-1.872A5.725 5.725 0 0 1 1.6 4.016a5.338 5.338 0 0 1 1.015-1.4A5.568 5.568 0 0 1 4.014 1.6a5.818 5.818 0 0 1 1.653-.544A12.65 12.65 0 0 1 7.543.887l.9-.012h109.614l.913.013a12.371 12.371 0 0 1 1.859.162 5.974 5.974 0 0 1 1.671.55 5.607 5.607 0 0 1 2.415 2.42 5.769 5.769 0 0 1 .535 1.649 13.1 13.1 0 0 1 .174 1.887v.89c.008.375.008.732.008 1.092v20.927c0 .363 0 .718-.008 1.075v.93a12.836 12.836 0 0 1-.171 1.853 5.751 5.751 0 0 1-.54 1.67 5.479 5.479 0 0 1-1.016 1.386 5.4 5.4 0 0 1-1.4 1.022 5.842 5.842 0 0 1-1.668.55 12.483 12.483 0 0 1-1.869.163c-.293.007-.6.011-.9.011h-1.084z"/>
                </g>
            </g>
        </g>
        <g id="Groupe_40566">
            <g id="Groupe_40563">
                <g id="Groupe_40562">
                    <g id="Groupe_40561">
                        <g id="Groupe_40560">
                            <path id="Union_4" fill="#fff" stroke="rgba(0,0,0,0)" stroke-miterlimit="10" d="M-7924.848-561.977c-1.853-2.708-3.295-7.629-1.361-10.977a5.31 5.31 0 0 1 4.473-2.728c1.42-.03 2.736.959 3.609.959.855 0 2.483-1.182 4.163-1a5.065 5.065 0 0 1 3.991 2.157 4.946 4.946 0 0 0-2.356 4.153 4.782 4.782 0 0 0 2.919 4.4 11.035 11.035 0 0 1-1.518 3.092c-.9 1.337-1.833 2.644-3.321 2.67-1.447.032-1.932-.854-3.591-.854s-2.193.828-3.58.885h-.072c-1.382-.004-2.445-1.455-3.356-2.757zm6.55-14a4.631 4.631 0 0 1 1.144-3.361 4.965 4.965 0 0 1 3.208-1.661 4.873 4.873 0 0 1-1.114 3.492 4.2 4.2 0 0 1-3.027 1.538c-.071-.002-.141-.005-.213-.01z" transform="translate(7937.102 589.72)"/>
                        </g>
                    </g>
                </g>
            </g>
            <g id="Groupe_40565">
                <g id="Groupe_40564">
                    <path id="Tracé_4449" d="M35.655 14.7V9.578h-1.877v-.843h4.677v.843h-1.873V14.7z" class="cls-2"/>
                    <path id="Tracé_4450" d="M42.765 13.486a1.829 1.829 0 0 1-1.952 1.3 2.046 2.046 0 0 1-2.08-2.325 2.077 2.077 0 0 1 2.077-2.352c1.253 0 2.008.856 2.008 2.27v.31h-3.179v.05a1.19 1.19 0 0 0 1.2 1.29 1.08 1.08 0 0 0 1.071-.546zm-3.126-1.451h2.274a1.086 1.086 0 0 0-1.108-1.167 1.151 1.151 0 0 0-1.166 1.167zm.636-2.589l1.038-1.423h1.042l-1.162 1.423z" class="cls-2"/>
                    <path id="Tracé_4451" d="M44.053 8.441h.888V14.7h-.888z" class="cls-2"/>
                    <path id="Tracé_4452" d="M50.208 13.486a1.829 1.829 0 0 1-1.951 1.3 2.046 2.046 0 0 1-2.08-2.325 2.076 2.076 0 0 1 2.076-2.352c1.253 0 2.009.856 2.009 2.27v.31h-3.18v.05a1.19 1.19 0 0 0 1.2 1.29 1.081 1.081 0 0 0 1.072-.546zm-3.126-1.451h2.274a1.086 1.086 0 0 0-1.108-1.167 1.152 1.152 0 0 0-1.166 1.167zm.637-2.589l1.038-1.423H49.8l-1.163 1.423z" class="cls-2"/>
                    <path id="Tracé_4453" d="M54.4 11.67a1 1 0 0 0-1.063-.764c-.744 0-1.2.57-1.2 1.53 0 .976.459 1.559 1.2 1.559a.979.979 0 0 0 1.063-.741h.865a1.763 1.763 0 0 1-1.923 1.535 2.068 2.068 0 0 1-2.114-2.353 2.053 2.053 0 0 1 2.109-2.324 1.778 1.778 0 0 1 1.928 1.558z" class="cls-2"/>
                    <path id="Tracé_4454" d="M56.447 8.441h.881v2.481h.07a1.386 1.386 0 0 1 1.373-.806 1.483 1.483 0 0 1 1.551 1.678V14.7h-.889v-2.686c0-.72-.335-1.084-.963-1.084a1.052 1.052 0 0 0-1.134 1.142V14.7h-.889z" class="cls-2"/>
                    <path id="Tracé_4455" d="M61.439 13.428c0-.81.6-1.278 1.675-1.344l1.22-.07v-.389c0-.476-.314-.744-.922-.744-.5 0-.84.182-.938.5h-.861c.091-.773.819-1.269 1.84-1.269 1.129 0 1.765.562 1.765 1.513V14.7h-.855v-.633h-.07a1.515 1.515 0 0 1-1.353.707 1.36 1.36 0 0 1-1.501-1.346zm2.9-.385v-.376l-1.1.07c-.62.042-.9.253-.9.65s.352.641.835.641a1.061 1.061 0 0 0 1.16-.985z" class="cls-2"/>
                    <path id="Tracé_4456" d="M66.61 10.2h.855v.69h.067a1.222 1.222 0 0 1 1.216-.765 1.865 1.865 0 0 1 .4.037v.877a2.423 2.423 0 0 0-.5-.054 1.055 1.055 0 0 0-1.148 1.058V14.7h-.89z" class="cls-2"/>
                    <path id="Tracé_4457" d="M69.961 15.152h.91c.075.327.451.538 1.05.538.741 0 1.179-.352 1.179-.947v-.864h-.066a1.515 1.515 0 0 1-1.39.756c-1.149 0-1.86-.888-1.86-2.237 0-1.373.718-2.274 1.869-2.274a1.56 1.56 0 0 1 1.414.794h.07V10.2h.852v4.54c0 1.03-.807 1.683-2.08 1.683-1.125-.001-1.853-.506-1.948-1.271zm3.156-2.758c0-.9-.464-1.472-1.221-1.472S70.7 11.5 70.7 12.394s.429 1.472 1.194 1.472 1.223-.566 1.223-1.472z" class="cls-2"/>
                    <path id="Tracé_4458" d="M79.212 13.486a1.828 1.828 0 0 1-1.951 1.3 2.046 2.046 0 0 1-2.08-2.325 2.077 2.077 0 0 1 2.076-2.352c1.253 0 2.009.856 2.009 2.27v.31h-3.18v.05a1.191 1.191 0 0 0 1.2 1.29 1.08 1.08 0 0 0 1.071-.546zm-3.126-1.451h2.275a1.087 1.087 0 0 0-1.109-1.167 1.152 1.152 0 0 0-1.166 1.167z" class="cls-2"/>
                    <path id="Tracé_4459" d="M80.459 10.2h.856v.69h.066a1.222 1.222 0 0 1 1.216-.765 1.868 1.868 0 0 1 .4.037v.877a2.432 2.432 0 0 0-.5-.054 1.056 1.056 0 0 0-1.15 1.059V14.7h-.889z" class="cls-2"/>
                    <path id="Tracé_4460" d="M86.2 12.448c0-1.423.731-2.324 1.869-2.324a1.483 1.483 0 0 1 1.381.79h.066V8.441h.884V14.7h-.852v-.71h-.07a1.564 1.564 0 0 1-1.414.786c-1.145 0-1.864-.901-1.864-2.328zm.918 0c0 .955.45 1.53 1.2 1.53s1.212-.583 1.212-1.526-.468-1.53-1.212-1.53-1.204.578-1.204 1.526z" class="cls-2"/>
                    <path id="Tracé_4461" d="M91.6 13.428c0-.81.6-1.278 1.675-1.344l1.22-.07v-.389c0-.476-.315-.744-.922-.744-.5 0-.84.182-.939.5h-.86c.091-.773.818-1.269 1.84-1.269 1.129 0 1.765.562 1.765 1.513V14.7h-.855v-.633h-.07a1.515 1.515 0 0 1-1.353.707 1.36 1.36 0 0 1-1.501-1.346zm2.9-.385v-.376l-1.1.07c-.62.042-.9.253-.9.65s.351.641.835.641a1.062 1.062 0 0 0 1.165-.985z" class="cls-2"/>
                    <path id="Tracé_4462" d="M96.773 10.2h.855v.715h.067a1.349 1.349 0 0 1 1.344-.8 1.464 1.464 0 0 1 1.558 1.675v2.91h-.888v-2.69c0-.724-.315-1.084-.972-1.084a1.033 1.033 0 0 0-1.075 1.141V14.7h-.889z" class="cls-2"/>
                    <path id="Tracé_4463" d="M103.618 10.112c1.012 0 1.674.471 1.761 1.265h-.852c-.082-.331-.4-.542-.909-.542s-.873.236-.873.587c0 .269.227.439.715.551l.749.173c.856.2 1.257.567 1.257 1.229 0 .847-.79 1.414-1.865 1.414s-1.769-.484-1.849-1.282h.89a.914.914 0 0 0 .98.562c.553 0 .947-.248.947-.608 0-.269-.211-.442-.662-.55l-.785-.182c-.857-.2-1.253-.587-1.253-1.257 0-.798.731-1.36 1.749-1.36z" class="cls-2"/>
                </g>
            </g>
        </g>
        <g id="Groupe_40567">
            <path id="Tracé_4464" d="M35.2 18.067h1.86v12.418H35.2z" class="cls-2"/>
            <path id="Tracé_4465" d="M39.3 22.611l1.015-4.544h1.805l-1.23 4.544z" class="cls-2"/>
            <path id="Tracé_4466" d="M49.146 27.129h-4.734l-1.137 3.356h-2l4.483-12.418h2.083l4.479 12.418h-2.039zM44.9 25.58h3.752l-1.849-5.448h-.052z" class="cls-2"/>
            <path id="Tracé_4467" d="M62 25.959c0 2.813-1.506 4.621-3.778 4.621A3.069 3.069 0 0 1 55.376 29h-.043v4.48h-1.858V21.431h1.8v1.506h.035a3.21 3.21 0 0 1 2.882-1.6C60.488 21.336 62 23.153 62 25.959zm-1.91 0c0-1.834-.947-3.039-2.393-3.039-1.42 0-2.375 1.231-2.375 3.039 0 1.824.955 3.046 2.375 3.046 1.449-.005 2.396-1.196 2.396-3.046z" class="cls-2"/>
            <path id="Tracé_4468" d="M71.967 25.959c0 2.813-1.506 4.621-3.778 4.621A3.071 3.071 0 0 1 65.34 29h-.04v4.48h-1.861V21.431h1.8v1.506h.034a3.212 3.212 0 0 1 2.883-1.6c2.297-.001 3.811 1.816 3.811 4.622zm-1.91 0c0-1.834-.947-3.039-2.392-3.039-1.42 0-2.375 1.231-2.375 3.039 0 1.824.955 3.046 2.375 3.046 1.445-.005 2.392-1.196 2.392-3.046z" class="cls-2"/>
            <path id="Tracé_4469" d="M78.553 27.025c.138 1.232 1.334 2.04 2.969 2.04 1.566 0 2.693-.808 2.693-1.919 0-.963-.679-1.541-2.289-1.936l-1.609-.388c-2.28-.551-3.339-1.617-3.339-3.348 0-2.142 1.867-3.614 4.519-3.614 2.624 0 4.422 1.472 4.483 3.614H84.1c-.112-1.239-1.137-1.987-2.634-1.987s-2.521.757-2.521 1.858c0 .878.654 1.4 2.255 1.79l1.368.336c2.548.6 3.606 1.627 3.606 3.443 0 2.323-1.85 3.778-4.794 3.778-2.754 0-4.613-1.421-4.733-3.667z" class="cls-2"/>
            <path id="Tracé_4470" d="M90.189 19.289v2.142h1.722V22.9h-1.722v5c0 .775.345 1.136 1.1 1.136a5.7 5.7 0 0 0 .611-.043v1.463a5.083 5.083 0 0 1-1.032.086c-1.833 0-2.548-.688-2.548-2.444V22.9H87v-1.469h1.317v-2.142z" class="cls-2"/>
            <path id="Tracé_4471" d="M92.907 25.959c0-2.849 1.677-4.639 4.294-4.639s4.3 1.79 4.3 4.639S99.834 30.6 97.2 30.6s-4.293-1.785-4.293-4.641zm6.695 0c0-1.955-.895-3.108-2.4-3.108s-2.4 1.162-2.4 3.108c0 1.962.9 3.106 2.4 3.106s2.398-1.144 2.398-3.106z" class="cls-2"/>
            <path id="Tracé_4472" d="M103.028 21.431h1.772v1.541h.043a2.161 2.161 0 0 1 2.178-1.636 2.874 2.874 0 0 1 .637.07v1.738a2.591 2.591 0 0 0-.835-.112 1.872 1.872 0 0 0-1.937 2.083v5.37h-1.858z" class="cls-2"/>
            <path id="Tracé_4473" d="M116.226 27.826c-.25 1.644-1.851 2.772-3.9 2.772-2.634 0-4.269-1.765-4.269-4.6s1.644-4.682 4.191-4.682c2.5 0 4.08 1.721 4.08 4.466v.637h-6.4v.112a2.359 2.359 0 0 0 2.436 2.565 2.048 2.048 0 0 0 2.09-1.274zm-6.282-2.7h4.526a2.177 2.177 0 0 0-2.22-2.3 2.292 2.292 0 0 0-2.306 2.298z" class="cls-2"/>
        </g>
    </g>
</svg>