<svg xmlns="http://www.w3.org/2000/svg" width="11.717" height="14.777" viewBox="0 0 11.717 14.777">
    <path fill="#161616" d="M-7925.62-568.092c-1.226-1.838-2.179-5.176-.9-7.449a3.5 3.5 0 0 1 2.958-1.851c.939-.02 1.809.651 2.387.651s1.642-.8 2.753-.682a3.321 3.321 0 0 1 2.639 1.464 3.361 3.361 0 0 0-1.558 2.818 3.233 3.233 0 0 0 1.93 2.985 7.575 7.575 0 0 1-1 2.1c-.592.907-1.212 1.794-2.2 1.812-.957.022-1.278-.579-2.375-.579s-1.45.562-2.367.6h-.049c-.912-.001-1.615-.986-2.218-1.869zm4.332-9.5a3.192 3.192 0 0 1 .757-2.28 3.258 3.258 0 0 1 2.121-1.128 3.364 3.364 0 0 1-.737 2.37 2.752 2.752 0 0 1-2 1.043c-.053-.001-.095-.003-.142-.006z" transform="translate(7927.127 581.001)"/>
</svg>