<svg xmlns="http://www.w3.org/2000/svg" id="play_store_badge" width="135" height="40" viewBox="0 0 135 40">
    <defs>
        <linearGradient id="linear-gradient" x1=".915" x2="-.383" y1="6.614" y2="5.945" gradientUnits="objectBoundingBox">
            <stop offset="0" stop-color="#00a0ff"/>
            <stop offset=".007" stop-color="#00a1ff"/>
            <stop offset=".26" stop-color="#00beff"/>
            <stop offset=".512" stop-color="#00d2ff"/>
            <stop offset=".76" stop-color="#00dfff"/>
            <stop offset="1" stop-color="#00e3ff"/>
        </linearGradient>
        <linearGradient id="linear-gradient-2" x1="1.076" x2="-1.305" y1="17.1" y2="17.1" gradientUnits="objectBoundingBox">
            <stop offset="0" stop-color="#ffe000"/>
            <stop offset=".409" stop-color="#ffbd00"/>
            <stop offset=".775" stop-color="orange"/>
            <stop offset="1" stop-color="#ff9c00"/>
        </linearGradient>
        <linearGradient id="linear-gradient-3" x1=".862" x2="-.501" y1="10.863" y2="9.093" gradientUnits="objectBoundingBox">
            <stop offset="0" stop-color="#ff3a44"/>
            <stop offset="1" stop-color="#c31162"/>
        </linearGradient>
        <linearGradient id="linear-gradient-4" x1="-.188" x2=".421" y1="13.583" y2="12.793" gradientUnits="objectBoundingBox">
            <stop offset="0" stop-color="#32a071"/>
            <stop offset=".068" stop-color="#2da771"/>
            <stop offset=".476" stop-color="#15cf74"/>
            <stop offset=".801" stop-color="#06e775"/>
            <stop offset="1" stop-color="#00f076"/>
        </linearGradient>
        <style>
            .cls-9{fill:#fff}.cls-7{isolation:isolate;opacity:.12}.cls-9{stroke:#fff;stroke-miterlimit:10;stroke-width:.2px}
        </style>
    </defs>
    <g id="Groupe_40573">
        <rect id="Rectangle_18061" width="135" height="40" rx="5"/>
        <path id="Tracé_4475" fill="#fff" d="M68.136 21.752A4.253 4.253 0 1 0 72.4 26a4.192 4.192 0 0 0-4.264-4.248zm0 6.831a2.585 2.585 0 1 1 2.4-2.583 2.461 2.461 0 0 1-2.4 2.583zm-9.314-6.831A4.253 4.253 0 1 0 63.092 26a4.192 4.192 0 0 0-4.27-4.248zm0 6.831A2.585 2.585 0 1 1 61.223 26a2.461 2.461 0 0 1-2.401 2.583zm-11.078-5.526v1.8h4.317a3.766 3.766 0 0 1-.983 2.272 4.42 4.42 0 0 1-3.334 1.321 4.8 4.8 0 0 1 0-9.6A4.6 4.6 0 0 1 51 20.141l1.273-1.273a6.3 6.3 0 0 0-4.527-1.821 6.606 6.606 0 1 0 0 13.211 6.036 6.036 0 0 0 4.607-1.853 5.962 5.962 0 0 0 1.563-4.221 5.836 5.836 0 0 0-.1-1.127zm45.308 1.4a3.954 3.954 0 0 0-3.641-2.706A4.042 4.042 0 0 0 85.4 26a4.162 4.162 0 0 0 4.22 4.253 4.232 4.232 0 0 0 3.545-1.885l-1.45-.966a2.432 2.432 0 0 1-2.095 1.176 2.164 2.164 0 0 1-2.062-1.289l5.687-2.352zm-5.8 1.418a2.333 2.333 0 0 1 2.223-2.475 1.648 1.648 0 0 1 1.579.9zM82.628 30H84.5V17.5h-1.872zm-3.061-7.3H79.5a2.948 2.948 0 0 0-2.239-.95 4.257 4.257 0 0 0 0 8.506 2.9 2.9 0 0 0 2.239-.967h.064v.611c0 1.627-.87 2.5-2.271 2.5a2.354 2.354 0 0 1-2.143-1.515l-1.627.677a4.053 4.053 0 0 0 3.77 2.513c2.191 0 4.044-1.289 4.044-4.43v-7.636h-1.77zm-2.142 5.881a2.587 2.587 0 0 1 0-5.156 2.4 2.4 0 0 1 2.275 2.596 2.377 2.377 0 0 1-2.275 2.562zM101.806 17.5h-4.471V30H99.2v-4.736h2.606a3.888 3.888 0 1 0 0-7.765zm.048 6.025H99.2v-4.286h2.654a2.143 2.143 0 1 1 0 4.285zm11.532-1.8a3.5 3.5 0 0 0-3.33 1.914l1.657.691a1.769 1.769 0 0 1 1.705-.917 1.8 1.8 0 0 1 1.962 1.609v.128a4.131 4.131 0 0 0-1.946-.482c-1.785 0-3.6.981-3.6 2.814a2.889 2.889 0 0 0 3.1 2.751 2.633 2.633 0 0 0 2.381-1.223h.064v.965h1.8v-4.788c.002-2.22-1.654-3.458-3.793-3.458zm-.226 6.851c-.611 0-1.463-.305-1.463-1.061 0-.965 1.061-1.335 1.978-1.335a3.329 3.329 0 0 1 1.7.418 2.262 2.262 0 0 1-2.215 1.982zM123.743 22l-2.139 5.42h-.064L119.32 22h-2.01l3.329 7.575-1.9 4.214h1.946L125.818 22zm-16.807 8h1.864V17.5h-1.866z"/>
        <g id="Groupe_40572">
            <path id="Tracé_4476" fill="url(#linear-gradient)" d="M10.435 7.538a2 2 0 0 0-.463 1.4v22.121a2 2 0 0 0 .463 1.405l.074.072L22.9 20.147v-.292L10.509 7.466z"/>
            <path id="Tracé_4477" fill="url(#linear-gradient-2)" d="M27.028 24.279L22.9 20.147v-.292l4.131-4.13.093.053 4.893 2.78c1.4.794 1.4 2.093 0 2.887l-4.893 2.781z"/>
            <path id="Tracé_4478" fill="url(#linear-gradient-3)" d="M27.122 24.225L22.9 20 10.435 32.464a1.626 1.626 0 0 0 2.078.061l14.609-8.3"/>
            <path id="Tracé_4479" fill="url(#linear-gradient-4)" d="M27.122 15.777l-14.609-8.3a1.626 1.626 0 0 0-2.078.061L22.9 20z"/>
            <g id="Groupe_40571">
                <path id="Tracé_4480" d="M27.029 24.132l-14.516 8.247a1.663 1.663 0 0 1-2 .011l-.075.075.074.072a1.663 1.663 0 0 0 2-.011l14.609-8.3z" style="isolation:isolate" opacity="0.2"/>
                <path id="Tracé_4481" d="M10.435 32.318a2 2 0 0 1-.463-1.4v.146a2 2 0 0 0 .463 1.405l.075-.075z" class="cls-7"/>
            </g>
            <path id="Tracé_4482" d="M32.015 21.3l-4.986 2.833.093.093 4.893-2.78A1.755 1.755 0 0 0 33.063 20a1.864 1.864 0 0 1-1.048 1.3z" class="cls-7"/>
            <path id="Tracé_4483" d="M12.513 7.623l19.5 11.08A1.863 1.863 0 0 1 33.063 20a1.755 1.755 0 0 0-1.048-1.444l-19.5-11.08c-1.4-.794-2.541-.134-2.541 1.467v.147c-.002-1.601 1.142-2.261 2.539-1.467z" style="isolation:isolate" fill="#fff" opacity="0.25"/>
        </g>
    </g>
    <g id="Groupe_40574">
        <path id="Tracé_4484" d="M41.278 13V7h1.835a2.984 2.984 0 0 1 2.213.834A2.937 2.937 0 0 1 46.155 10a2.939 2.939 0 0 1-.829 2.166 2.984 2.984 0 0 1-2.213.834zm.771-.737h1.064a2.252 2.252 0 0 0 1.647-.595A2.229 2.229 0 0 0 45.367 10a2.229 2.229 0 0 0-.607-1.663 2.247 2.247 0 0 0-1.647-.6h-1.064z" class="cls-9"/>
        <path id="Tracé_4485" d="M47.237 13V7h.771v6z" class="cls-9"/>
        <path id="Tracé_4486" d="M51.074 13.134a2.236 2.236 0 0 1-1.277-.427 1.975 1.975 0 0 1-.818-1.2l.7-.284a1.6 1.6 0 0 0 .514.833 1.3 1.3 0 0 0 .876.34 1.407 1.407 0 0 0 .86-.264.846.846 0 0 0 .355-.717.919.919 0 0 0-.355-.775 3.72 3.72 0 0 0-1.128-.507 3.02 3.02 0 0 1-1.201-.648 1.361 1.361 0 0 1-.411-1.019 1.487 1.487 0 0 1 .511-1.122 1.875 1.875 0 0 1 1.332-.478 1.926 1.926 0 0 1 1.24.381 1.757 1.757 0 0 1 .62.834l-.7.293a1.035 1.035 0 0 0-.373-.528 1.311 1.311 0 0 0-1.525 0 .754.754 0 0 0-.315.615.7.7 0 0 0 .289.566 2.781 2.781 0 0 0 .851.415 7.1 7.1 0 0 1 .742.277 3.391 3.391 0 0 1 .6.356 1.421 1.421 0 0 1 .461.553 1.8 1.8 0 0 1 .155.767 1.654 1.654 0 0 1-.18.779 1.466 1.466 0 0 1-.478.545 2.332 2.332 0 0 1-.641.305 2.4 2.4 0 0 1-.704.11z" class="cls-9"/>
        <path id="Tracé_4487" d="M54.954 13h-.77V7h2.044a1.9 1.9 0 0 1 1.32.507 1.745 1.745 0 0 1 0 2.556 1.9 1.9 0 0 1-1.32.507h-1.274zm0-3.168h1.291a.994.994 0 0 0 .779-.326 1.032 1.032 0 0 0 0-1.441.992.992 0 0 0-.779-.328h-1.291z" class="cls-9"/>
        <path id="Tracé_4488" d="M63.983 12.225a3.116 3.116 0 0 1-4.4 0A3.068 3.068 0 0 1 58.7 10a3.064 3.064 0 0 1 .884-2.224 3.1 3.1 0 0 1 4.4 0A3.067 3.067 0 0 1 64.867 10a3.072 3.072 0 0 1-.884 2.225zm-3.83-.5a2.306 2.306 0 0 0 3.26 0A2.348 2.348 0 0 0 64.08 10a2.35 2.35 0 0 0-.667-1.722 2.308 2.308 0 0 0-3.26 0A2.353 2.353 0 0 0 59.487 10a2.352 2.352 0 0 0 .666 1.722z" class="cls-9"/>
        <path id="Tracé_4489" d="M65.949 13V7h.939l2.912 4.668h.033l-.033-1.157V7h.771v6h-.801l-3.05-4.894h-.034l.034 1.157V13z" class="cls-9"/>
        <path id="Tracé_4490" d="M71.949 13V7h.771v6z" class="cls-9"/>
        <path id="Tracé_4491" d="M74.094 13V7h2.17a1.759 1.759 0 0 1 1.219.465A1.509 1.509 0 0 1 78 8.634a1.3 1.3 0 0 1-.223.754 1.4 1.4 0 0 1-.591.5v.033a1.529 1.529 0 0 1 .73.52 1.366 1.366 0 0 1 .285.855 1.577 1.577 0 0 1-.541 1.223 1.847 1.847 0 0 1-1.279.481zm.77-3.428h1.4a.9.9 0 0 0 .7-.289.9.9 0 0 0 .008-1.26.862.862 0 0 0-.674-.286h-1.434zm0 2.691h1.551a.922.922 0 0 0 .721-.311 1 1 0 0 0 .276-.678 1.01 1.01 0 0 0-1.031-.981h-1.517z" class="cls-9"/>
        <path id="Tracé_4492" d="M79.239 13V7h.771v5.263h2.6V13z" class="cls-9"/>
        <path id="Tracé_4493" d="M87.083 7.737H84.35v1.9h2.464v.72H84.35v1.9h2.733V13h-3.5V7h3.5z" class="cls-9"/>
        <path id="Tracé_4494" d="M91.742 13.134a2.233 2.233 0 0 1-1.277-.427 1.975 1.975 0 0 1-.818-1.2l.7-.284a1.606 1.606 0 0 0 .515.833 1.3 1.3 0 0 0 .876.34 1.4 1.4 0 0 0 .859-.264.844.844 0 0 0 .356-.717.917.917 0 0 0-.356-.775 3.7 3.7 0 0 0-1.127-.507 3.02 3.02 0 0 1-1.207-.649 1.361 1.361 0 0 1-.411-1.019 1.487 1.487 0 0 1 .512-1.122 1.875 1.875 0 0 1 1.336-.477 1.926 1.926 0 0 1 1.24.381 1.757 1.757 0 0 1 .62.834l-.7.293a1.047 1.047 0 0 0-.373-.528 1.311 1.311 0 0 0-1.525 0 .754.754 0 0 0-.315.615.7.7 0 0 0 .289.566 2.781 2.781 0 0 0 .851.415 7.1 7.1 0 0 1 .742.277 3.391 3.391 0 0 1 .6.356 1.421 1.421 0 0 1 .461.553 1.8 1.8 0 0 1 .155.767 1.654 1.654 0 0 1-.18.779 1.466 1.466 0 0 1-.478.545 2.332 2.332 0 0 1-.641.305 2.4 2.4 0 0 1-.704.11z" class="cls-9"/>
        <path id="Tracé_4495" d="M96.937 13.134a2.106 2.106 0 0 1-1.6-.653 2.4 2.4 0 0 1-.615-1.71V7h.77v3.805a1.721 1.721 0 0 0 .373 1.152 1.538 1.538 0 0 0 2.154 0 1.721 1.721 0 0 0 .373-1.152V7h.771v3.771a2.425 2.425 0 0 1-.6 1.714 2.1 2.1 0 0 1-1.626.649z" class="cls-9"/>
        <path id="Tracé_4496" d="M100.4 13V7h2.045a1.9 1.9 0 0 1 1.32.507 1.727 1.727 0 0 1 .146 2.389 1.778 1.778 0 0 1-1.022.607l-.017.025 1.685 2.439V13h-.914l-1.617-2.43h-.855V13zm.771-3.151h1.24a1.135 1.135 0 0 0 .792-.3.987.987 0 0 0 .331-.763 1.056 1.056 0 0 0-.293-.72.992.992 0 0 0-.779-.328h-1.291z" class="cls-9"/>
    </g>
</svg>