<svg xmlns="http://www.w3.org/2000/svg" viewBox="0 0 60 60"><path d="M54.5 24.6h-49m49 6.75v-9.99c0-4.54 0-6.81-.89-8.54a8.142 8.142 0 0 0-3.57-3.54c-1.75-.88-4.03-.88-8.61-.88H18.56c-4.57 0-6.86 0-8.61.88a8.142 8.142 0 0 0-3.57 3.54c-.89 1.73-.89 4-.89 8.54v22.68c0 4.54 0 6.81.89 8.54a8.142 8.142 0 0 0 3.57 3.54c1.74.88 4.03.88 8.61.88h11.43m10.9-54v10.8M19.11 3v10.8M36.8 48.9l5.44 5.4 12.25-12.15" fill="none" stroke="#02ae96" stroke-linecap="round" stroke-linejoin="round" stroke-width="4"/></svg>