<svg xmlns="http://www.w3.org/2000/svg" viewBox="0 0 60 60"><path d="M27.58 10.1h-7.73c-4.06 0-6.09 0-7.64.79-1.36.69-2.47 1.8-3.17 3.17-.79 1.55-.79 3.58-.79 7.64v12.57c0 2.25 0 3.37.25 4.29.67 2.5 2.62 4.46 5.13 5.13.92.25 2.05.25 4.29.25v5.64c0 1.29 0 1.93.26 2.26.23.29.58.46.94.46.42 0 .93-.4 1.93-1.21l5.77-4.61c1.18-.94 1.77-1.41 2.42-1.75.58-.3 1.2-.51 1.84-.65.72-.15 1.48-.15 2.98-.15h3.66c4.06 0 6.09 0 7.64-.79a7.3 7.3 0 0 0 3.17-3.17c.79-1.55.79-3.58.79-7.64v-.48m.29-22.04a7.249 7.249 0 0 1-10.25 10.25A7.249 7.249 0 0 1 49.61 9.81z" fill="none" stroke="#02ae96" stroke-linecap="round" stroke-linejoin="round" stroke-width="4"/></svg>